<?xml version="1.0" encoding="UTF-8"?>
<svg width="16px" height="17px" viewBox="0 0 16 17" version="1.1" xmlns="http://www.w3.org/2000/svg" xmlns:xlink="http://www.w3.org/1999/xlink">
    <g id="---" stroke="none" stroke-width="1" fill="none" fill-rule="evenodd">
        <g id="图片弹框详情" transform="translate(-1195.000000, -254.000000)" fill="#818181" fill-rule="nonzero">
            <g id="编组-27" transform="translate(389.000000, 222.469954)">
                <g id="编组-24" transform="translate(798.000000, 24.500000)">
                    <g id="详情" transform="translate(8.000000, 8.000000)">
                        <path d="M8.00000561,5.61482982e-06 C10.1491856,5.61482982e-06 12.1674563,0.853139742 13.6566128,2.3433872 C15.1591725,3.84208124 16.0025107,5.87779289 15.9999944,8.00000561 C15.9999944,10.1491856 15.1468603,12.1674563 13.6566128,13.6566128 C12.1579188,15.1591725 10.1222071,16.0025107 8.00000561,15.9999944 C5.85081442,15.9999944 3.83254371,15.1468603 2.3433872,13.6566128 C0.840827532,12.1579188 -0.00251068125,10.1222071 5.61482982e-06,8.00000561 C5.61482982e-06,5.85081442 0.853139742,3.83254371 2.3433872,2.3433872 C3.84208124,0.840827532 5.87779289,-0.00251068125 8.00000561,5.61482982e-06 Z M8.18218984,5.81808558 L7.45452143,5.81808558 L7.34651667,5.82572241 C6.97184053,5.88423759 6.70491663,6.22068774 6.7331507,6.59885314 C6.76138477,6.97701854 7.07531006,7.27010212 7.45452143,7.27233158 L7.45452143,10.9084917 L6.90904285,10.9084917 L6.8010381,10.9172194 C6.42636196,10.9757346 6.15943806,11.3121847 6.18767213,11.6903501 C6.2159062,12.0685155 6.52983148,12.3615991 6.90904285,12.3638286 L9.45424587,12.3638286 L9.56225063,12.3561919 C9.93692677,12.2976767 10.2038507,11.9612266 10.1756166,11.5830611 C10.1473825,11.2048957 9.83345725,10.9118122 9.45424587,10.9095827 L8.9087673,10.9084917 L8.9087673,6.54466317 L8.9011306,6.43774937 C8.84764839,6.0814105 8.54142886,5.81787612 8.18109889,5.81808558 L8.18218984,5.81808558 Z M8,3.27288269 C7.49810168,3.27288269 7.0912327,3.67975167 7.0912327,4.18164999 C7.0912327,4.68354831 7.49810168,5.09041729 8,5.09041729 C8.50189832,5.09041729 8.9087673,4.68354831 8.9087673,4.18164999 C8.9087673,3.67975167 8.50189832,3.27288269 8,3.27288269 L8,3.27288269 Z" id="形状"></path>
                    </g>
                </g>
            </g>
        </g>
    </g>
</svg>