<?xml version="1.0" encoding="UTF-8"?>
<svg width="13px" height="12px" viewBox="0 0 13 12" version="1.1" xmlns="http://www.w3.org/2000/svg" xmlns:xlink="http://www.w3.org/1999/xlink">
    <g id="图纸标注" stroke="none" stroke-width="1" fill="none" fill-rule="evenodd">
        <g id="标注列表" transform="translate(-1337.000000, -137.000000)" fill="currentColor">
            <g id="编组-6" transform="translate(1321.000000, 128.000000)">
                <g id="下载" transform="translate(16.000000, 9.007940)">
                    <path d="M6.62290547,7.99844776 L6.62290547,0.509492537 C6.62290547,0.203840796 6.41908458,-5.68434189e-14 6.11341294,-5.68434189e-14 C5.80776119,-5.68434189e-14 5.6040199,0.203840796 5.6040199,0.509492537 L5.6040199,7.84563184 L3.6680597,5.90967164 C3.46423881,5.70593035 3.15858706,5.70593035 2.95482587,5.90967164 C2.75100498,6.11351244 2.75100498,6.41916418 2.95482587,6.62290547 L5.45118408,9.11926368 C5.85866667,9.52682587 6.47006965,9.52682587 6.87765174,9.11926368 L9.37391045,6.62290547 C9.57773134,6.41916418 9.57773134,6.11351244 9.37391045,5.90967164 C9.17016915,5.70593035 8.86449751,5.70593035 8.66067662,5.90967164 L6.62290547,7.99844776 Z M11.2079403,7.89655721 C11.2079403,7.59088557 11.4117612,7.38706468 11.7174328,7.38706468 C12.0230846,7.38706468 12.2268259,7.59088557 12.2268259,7.89655721 L12.2268259,10.4438209 C12.2268259,11.3098706 11.564597,11.972199 10.6985473,11.972199 L1.52837811,11.972199 C0.662308458,11.972199 0,11.3098706 0,10.4438209 L0,7.89655721 C0,7.59088557 0.203741294,7.38706468 0.509492537,7.38706468 C0.815144279,7.38706468 1.01888557,7.59088557 1.01888557,7.89655721 L1.01888557,10.4438209 C1.01888557,10.7494726 1.22270647,10.9532139 1.52837811,10.9532139 L10.6985473,10.9532139 C11.004199,10.9532139 11.2079403,10.7494726 11.2079403,10.4438209 L11.2079403,7.89655721 Z" id="Fill-1"></path>
                </g>
            </g>
        </g>
    </g>
</svg>