<?xml version="1.0" encoding="UTF-8"?>
<svg width="16px" height="17px" viewBox="0 0 16 17" version="1.1" xmlns="http://www.w3.org/2000/svg" xmlns:xlink="http://www.w3.org/1999/xlink">
    <g id="---" stroke="none" stroke-width="1" fill="none" fill-rule="evenodd">
        <g id="图片弹框详情" transform="translate(-711.000000, -254.000000)" fill="#818181" fill-rule="nonzero">
            <g id="编组-27" transform="translate(389.000000, 222.469954)">
                <g id="编组-26" transform="translate(314.000000, 24.500000)">
                    <g id="全屏" transform="translate(8.000000, 8.000000)">
                        <path d="M5.96444444,10.0355556 C5.7975408,9.86727764 5.57034448,9.77262371 5.33333333,9.77262371 C5.09632219,9.77262371 4.86912587,9.86727764 4.70222222,10.0355556 L1.77777778,12.9688889 L1.77777778,10.6666667 C1.77777778,10.1757469 1.37980867,9.77777778 0.888888889,9.77777778 C0.397969111,9.77777778 3.15796771e-16,10.1757469 3.15796771e-16,10.6666667 L3.15796771e-16,15.1111111 C0.00140443326,15.2272687 0.0255635781,15.3420246 0.0711111111,15.4488889 C0.161311042,15.6660883 0.333911717,15.838689 0.551111111,15.9288889 C0.657975389,15.9744364 0.772731327,15.9985956 0.888888889,16 L5.33333333,16 C5.82425311,16 6.22222222,15.6020309 6.22222222,15.1111111 C6.22222222,14.6201913 5.82425311,14.2222222 5.33333333,14.2222222 L3.03111111,14.2222222 L5.96444444,11.2977778 C6.13272236,11.1308741 6.22737629,10.9036778 6.22737629,10.6666667 C6.22737629,10.4296555 6.13272236,10.2024592 5.96444444,10.0355556 L5.96444444,10.0355556 Z M15.9288889,0.551111111 C15.838689,0.333911717 15.6660883,0.161311042 15.4488889,0.0711111111 C15.3420246,0.0255635781 15.2272687,0.00140443326 15.1111111,3.15796771e-16 L10.6666667,3.15796771e-16 C10.1757469,3.15796771e-16 9.77777778,0.397969111 9.77777778,0.888888889 C9.77777778,1.37980867 10.1757469,1.77777778 10.6666667,1.77777778 L12.9688889,1.77777778 L10.0355556,4.70222222 C9.86727764,4.86912587 9.77262371,5.09632219 9.77262371,5.33333333 C9.77262371,5.57034448 9.86727764,5.7975408 10.0355556,5.96444444 C10.2024592,6.13272236 10.4296555,6.22737629 10.6666667,6.22737629 C10.9036778,6.22737629 11.1308741,6.13272236 11.2977778,5.96444444 L14.2222222,3.03111111 L14.2222222,5.33333333 C14.2222222,5.82425311 14.6201913,6.22222222 15.1111111,6.22222222 C15.6020309,6.22222222 16,5.82425311 16,5.33333333 L16,0.888888889 C15.9985956,0.772731327 15.9744364,0.657975389 15.9288889,0.551111111 L15.9288889,0.551111111 Z" id="形状"></path>
                        <path d="M5.96444444,10.0355556 C5.7975408,9.86727764 5.57034448,9.77262371 5.33333333,9.77262371 C5.09632219,9.77262371 4.86912587,9.86727764 4.70222222,10.0355556 L1.77777778,12.9688889 L1.77777778,10.6666667 C1.77777778,10.1757469 1.37980867,9.77777778 0.888888889,9.77777778 C0.397969111,9.77777778 3.15796771e-16,10.1757469 3.15796771e-16,10.6666667 L3.15796771e-16,15.1111111 C0.00140443326,15.2272687 0.0255635781,15.3420246 0.0711111111,15.4488889 C0.161311042,15.6660883 0.333911717,15.838689 0.551111111,15.9288889 C0.657975389,15.9744364 0.772731327,15.9985956 0.888888889,16 L5.33333333,16 C5.82425311,16 6.22222222,15.6020309 6.22222222,15.1111111 C6.22222222,14.6201913 5.82425311,14.2222222 5.33333333,14.2222222 L3.03111111,14.2222222 L5.96444444,11.2977778 C6.13272236,11.1308741 6.22737629,10.9036778 6.22737629,10.6666667 C6.22737629,10.4296555 6.13272236,10.2024592 5.96444444,10.0355556 L5.96444444,10.0355556 Z M15.9288889,0.551111111 C15.838689,0.333911717 15.6660883,0.161311042 15.4488889,0.0711111111 C15.3420246,0.0255635781 15.2272687,0.00140443326 15.1111111,3.15796771e-16 L10.6666667,3.15796771e-16 C10.1757469,3.15796771e-16 9.77777778,0.397969111 9.77777778,0.888888889 C9.77777778,1.37980867 10.1757469,1.77777778 10.6666667,1.77777778 L12.9688889,1.77777778 L10.0355556,4.70222222 C9.86727764,4.86912587 9.77262371,5.09632219 9.77262371,5.33333333 C9.77262371,5.57034448 9.86727764,5.7975408 10.0355556,5.96444444 C10.2024592,6.13272236 10.4296555,6.22737629 10.6666667,6.22737629 C10.9036778,6.22737629 11.1308741,6.13272236 11.2977778,5.96444444 L14.2222222,3.03111111 L14.2222222,5.33333333 C14.2222222,5.82425311 14.6201913,6.22222222 15.1111111,6.22222222 C15.6020309,6.22222222 16,5.82425311 16,5.33333333 L16,0.888888889 C15.9985956,0.772731327 15.9744364,0.657975389 15.9288889,0.551111111 L15.9288889,0.551111111 Z" id="形状备份-2" transform="translate(8.000000, 8.000000) scale(-1, 1) translate(-8.000000, -8.000000) "></path>
                    </g>
                </g>
            </g>
        </g>
    </g>
</svg>