<?xml version="1.0" encoding="UTF-8"?>
<svg width="17px" height="17px" viewBox="0 0 17 17" version="1.1" xmlns="http://www.w3.org/2000/svg" xmlns:xlink="http://www.w3.org/1999/xlink">
    <g id="---" stroke="none" stroke-width="1" fill="none" fill-rule="evenodd">
        <g id="图片全屏" transform="translate(-616.000000, -32.000000)" fill="#818181" fill-rule="nonzero">
            <g id="编组-2" transform="translate(608.520000, 24.500000)">
                <g id="收起" transform="translate(8.000000, 8.000000)">
                    <path d="M0.262931844,15.7370682 C0.429835488,15.9053461 0.657031812,16 0.894042955,16 C1.1310541,16 1.35825042,15.9053461 1.52515407,15.7370682 L4.44959851,12.8037348 L4.44959851,15.105957 C4.44959851,15.5968768 4.84756762,15.9948459 5.3384874,15.9948459 C5.82940718,15.9948459 6.22737629,15.5968768 6.22737629,15.105957 L6.22737629,10.6615126 C6.22597186,10.545355 6.20181271,10.4305991 6.15626518,10.3237348 C6.06606525,10.1065354 5.89346457,9.93393475 5.67626518,9.84373482 C5.5694009,9.79818729 5.45464496,9.77402814 5.3384874,9.77262371 L0.894042955,9.77262371 C0.403123177,9.77262371 0.00515406608,10.1705928 0.00515406608,10.6615126 C0.00515406608,11.1524324 0.403123177,11.5504015 0.894042955,11.5504015 L3.19626518,11.5504015 L0.262931844,14.4748459 C0.094653932,14.6417496 3.15796771e-16,14.8689459 3.15796771e-16,15.105957 C3.15796771e-16,15.3429682 0.094653932,15.5701645 0.262931844,15.7370682 L0.262931844,15.7370682 Z M9.84373482,5.67626518 C9.93393475,5.89346457 10.1065354,6.06606525 10.3237348,6.15626518 C10.4305991,6.20181271 10.545355,6.22597186 10.6615126,6.22737629 L15.105957,6.22737629 C15.5968768,6.22737629 15.9948459,5.82940718 15.9948459,5.3384874 C15.9948459,4.84756762 15.5968768,4.44959851 15.105957,4.44959851 L12.8037348,4.44959851 L15.7370682,1.52515407 C15.9053461,1.35825042 16,1.1310541 16,0.894042955 C16,0.657031812 15.9053461,0.429835488 15.7370682,0.262931844 C15.5701645,0.094653932 15.3429682,3.15796771e-16 15.105957,3.15796771e-16 C14.8689459,3.15796771e-16 14.6417496,0.094653932 14.4748459,0.262931844 L11.5504015,3.19626518 L11.5504015,0.894042955 C11.5504015,0.403123177 11.1524324,0.00515406608 10.6615126,0.00515406608 C10.1705928,0.00515406608 9.77262371,0.403123177 9.77262371,0.894042955 L9.77262371,5.3384874 C9.77402814,5.45464496 9.79818729,5.5694009 9.84373482,5.67626518 L9.84373482,5.67626518 Z" id="形状"></path>
                    <path d="M0.262931844,15.7370682 C0.429835488,15.9053461 0.657031812,16 0.894042955,16 C1.1310541,16 1.35825042,15.9053461 1.52515407,15.7370682 L4.44959851,12.8037348 L4.44959851,15.105957 C4.44959851,15.5968768 4.84756762,15.9948459 5.3384874,15.9948459 C5.82940718,15.9948459 6.22737629,15.5968768 6.22737629,15.105957 L6.22737629,10.6615126 C6.22597186,10.545355 6.20181271,10.4305991 6.15626518,10.3237348 C6.06606525,10.1065354 5.89346457,9.93393475 5.67626518,9.84373482 C5.5694009,9.79818729 5.45464496,9.77402814 5.3384874,9.77262371 L0.894042955,9.77262371 C0.403123177,9.77262371 0.00515406608,10.1705928 0.00515406608,10.6615126 C0.00515406608,11.1524324 0.403123177,11.5504015 0.894042955,11.5504015 L3.19626518,11.5504015 L0.262931844,14.4748459 C0.094653932,14.6417496 3.15796771e-16,14.8689459 3.15796771e-16,15.105957 C3.15796771e-16,15.3429682 0.094653932,15.5701645 0.262931844,15.7370682 L0.262931844,15.7370682 Z M9.84373482,5.67626518 C9.93393475,5.89346457 10.1065354,6.06606525 10.3237348,6.15626518 C10.4305991,6.20181271 10.545355,6.22597186 10.6615126,6.22737629 L15.105957,6.22737629 C15.5968768,6.22737629 15.9948459,5.82940718 15.9948459,5.3384874 C15.9948459,4.84756762 15.5968768,4.44959851 15.105957,4.44959851 L12.8037348,4.44959851 L15.7370682,1.52515407 C15.9053461,1.35825042 16,1.1310541 16,0.894042955 C16,0.657031812 15.9053461,0.429835488 15.7370682,0.262931844 C15.5701645,0.094653932 15.3429682,3.15796771e-16 15.105957,3.15796771e-16 C14.8689459,3.15796771e-16 14.6417496,0.094653932 14.4748459,0.262931844 L11.5504015,3.19626518 L11.5504015,0.894042955 C11.5504015,0.403123177 11.1524324,0.00515406608 10.6615126,0.00515406608 C10.1705928,0.00515406608 9.77262371,0.403123177 9.77262371,0.894042955 L9.77262371,5.3384874 C9.77402814,5.45464496 9.79818729,5.5694009 9.84373482,5.67626518 L9.84373482,5.67626518 Z" id="形状备份-2" transform="translate(8.000000, 8.000000) scale(-1, 1) translate(-8.000000, -8.000000) "></path>
                </g>
            </g>
        </g>
    </g>
</svg>