<?xml version="1.0" encoding="UTF-8"?>
<svg width="17px" height="16px" viewBox="0 0 17 16" version="1.1" xmlns="http://www.w3.org/2000/svg" xmlns:xlink="http://www.w3.org/1999/xlink">
    <g id="图纸标注" stroke="none" stroke-width="1" fill="none" fill-rule="evenodd">
        <g id="标注列表" transform="translate(-1295.000000, -204.000000)" fill="currentColor" fill-rule="nonzero">
            <g id="编组-12" transform="translate(1176.000000, 196.000000)">
                <g id="编组-9" transform="translate(111.000000, 0.000000)">
                    <g id="jia" transform="translate(8.000000, 8.000000)">
                        <path d="M8.01838281,-2.5737483e-16 C3.58995465,-2.5737483e-16 0,3.58171408 0,8 C0,12.4182859 3.58995465,16 8.01838281,16 C12.446811,16 16.0367656,12.4182859 16.0367656,8 C16.0367656,3.58171408 12.446811,-2.5737483e-16 8.01838281,-2.5737483e-16 M12.0579828,8.84405173 L8.86241643,8.84405173 L8.86241643,12.0396181 C8.86241643,12.5057627 8.48450931,12.8836699 8.0183647,12.8836699 C7.55222009,12.8836699 7.17431297,12.5057627 7.17431297,12.0396181 L7.17431297,8.84405173 L3.97874657,8.84405173 C3.51260196,8.84405173 3.13469484,8.46614461 3.13469484,8 C3.13469484,7.53385539 3.51260196,7.15594827 3.97874657,7.15594827 L7.17431297,7.15594827 L7.17431297,3.96038187 C7.17431297,3.49423726 7.55222009,3.11633014 8.0183647,3.11633014 C8.48450931,3.11633014 8.86241643,3.49423726 8.86241643,3.96038187 L8.86241643,7.15594827 L12.0579828,7.15594827 C12.5241274,7.15594827 12.9020346,7.53385539 12.9020346,8 C12.9020346,8.46614461 12.5241274,8.84405173 12.0579828,8.84405173 Z" id="形状"></path>
                    </g>
                </g>
            </g>
        </g>
    </g>
</svg>