<?xml version="1.0" encoding="UTF-8"?>
<svg width="16px" height="16px" viewBox="0 0 16 16" version="1.1" xmlns="http://www.w3.org/2000/svg" xmlns:xlink="http://www.w3.org/1999/xlink">
    <g id="图纸标注" stroke="none" stroke-width="1" fill="none" fill-rule="evenodd">
        <g id="标注列表" transform="translate(-1184.000000, -204.000000)" fill="currentColor" fill-rule="nonzero">
            <g id="编组-12" transform="translate(1176.000000, 196.000000)">
                <g id="jian" transform="translate(8.000000, 8.000000)">
                    <path d="M8,16 C3.58184616,16 0,12.4181538 0,8 C0,3.58184616 3.58184616,0 8,0 C12.4181538,0 16,3.58184616 16,8 C16,12.4181538 12.4181538,16 8,16 Z M11.6923077,7.38461539 L4.30769231,7.38461539 C3.96782478,7.38461539 3.6923077,7.66013246 3.6923077,8 C3.6923077,8.33986754 3.96782478,8.61538461 4.30769231,8.61538461 L11.6923077,8.61538461 C12.0321752,8.61538461 12.3076923,8.33986754 12.3076923,8 C12.3076923,7.66013246 12.0321752,7.38461539 11.6923077,7.38461539 L11.6923077,7.38461539 Z" id="形状"></path>
                </g>
            </g>
        </g>
    </g>
</svg>