<?xml version="1.0" encoding="UTF-8"?>
<svg viewBox="0 0 13 12" version="1.1" xmlns="http://www.w3.org/2000/svg" xmlns:xlink="http://www.w3.org/1999/xlink">
    <g id="图纸标注" stroke="none" stroke-width="1" fill="none" fill-rule="evenodd">
        <g id="全局说明" transform="translate(-1247.000000, -138.000000)" fill="currentColor" fill-rule="nonzero">
            <g id="引用" transform="translate(1247.000000, 138.000000)">
                <path d="M9.14882592,0 C8.37825233,0 7.60073663,0.290700623 7.00805445,0.867763057 L5.02781915,2.82456875 C4.84926647,3.00510833 4.84926647,3.29571924 5.02781915,3.47625881 C5.21387518,3.65366831 5.50646964,3.65366831 5.69252566,3.47625881 L7.67276096,1.52379193 L7.67970307,1.52379193 C8.07114822,1.13827145 8.59942148,0.923592186 9.14882592,0.926770953 C10.3046863,0.926770953 11.2305895,1.83792216 11.2305895,2.97903058 C11.2305895,3.50315947 11.031004,4.03075941 10.6248909,4.43166595 L8.47023521,6.55768544 C8.01021055,6.99749111 7.37603484,7.20578747 6.74482338,7.12440062 C6.11361193,7.04301377 5.55301364,6.6806662 5.2195948,6.13855588 C5.13281849,5.99103616 5.06079415,5.83310328 5.01306719,5.67256711 C4.92780378,5.44140917 4.67809426,5.31576155 4.44165529,5.38504686 C4.20521631,5.45433217 4.0628162,5.69488232 4.11580019,5.93549932 C4.18956005,6.16458876 4.2893528,6.39367822 4.42212054,6.60628017 L4.42212054,6.61061898 C4.97234729,7.51151967 5.95241756,8.0604248 7.00805445,8.05891862 C7.7725537,8.05891862 8.53792072,7.77689252 9.12366079,7.21284654 L11.2826553,5.08335599 C11.8449227,4.52765845 12.1606655,3.76956331 12.1591018,2.97903058 C12.1591018,1.33028077 10.8175343,0 9.14882592,0 L9.14882592,0 Z M6.47004136,8.52403652 L4.4889383,10.4808422 C3.6853897,11.2739777 2.34122473,11.2774487 1.5385439,10.4834455 L1.5385439,10.4808422 C1.15181132,10.0960083 0.934386889,9.57292065 0.934386889,9.0273391 C0.934386889,8.48175755 1.15181132,7.95866988 1.5385439,7.57383597 L3.67063774,5.46343622 C4.06701178,5.08102292 4.59679904,4.86811194 5.14757046,4.86988628 C5.68558355,4.86988628 6.21665455,5.07033955 6.62276766,5.46343622 L6.62276766,5.46951056 C6.74946107,5.59099739 6.84925382,5.72550066 6.93516235,5.86954933 C7.02801301,6.01359799 7.093963,6.17153087 7.14168996,6.32859598 C7.17627798,6.44695967 7.25661763,6.54665528 7.36492403,6.60561305 C7.47323042,6.66457082 7.60056963,6.67792747 7.7187524,6.64272622 C7.83728015,6.60935991 7.93769729,6.53027272 7.99791084,6.42286477 C8.05812439,6.31545682 8.0732014,6.18852744 8.03982474,6.0700026 C7.96603563,5.83625689 7.86802478,5.61086101 7.74738859,5.39748623 C7.61448835,5.18758135 7.46037445,4.99188578 7.28747416,4.81348169 C6.7150959,4.25552161 5.94690355,3.94400809 5.14757046,3.94571163 C4.37005476,3.94571163 3.5986134,4.23641926 3.00679899,4.81348169 L0.872101877,6.92214592 C-0.290700626,8.07193198 -0.290700626,9.98274623 0.872101877,11.1394744 L0.905076867,11.162904 C2.07482146,12.2866571 3.97695809,12.2771117 5.14062836,11.1455487 L5.14062836,11.1386066 L5.14757046,11.1325323 L7.13474787,9.1800654 C7.22193244,9.09278489 7.2703974,8.97413757 7.26925518,8.8507774 C7.26811295,8.72741723 7.21745931,8.60968768 7.12867353,8.52403652 C6.94491416,8.34593257 6.65293296,8.34593257 6.4691736,8.52403652 L6.47004136,8.52403652 Z" id="形状"></path>
            </g>
        </g>
    </g>
</svg>