<?xml version="1.0" encoding="UTF-8"?>
<svg viewBox="0 0 16 12" version="1.1" xmlns="http://www.w3.org/2000/svg" xmlns:xlink="http://www.w3.org/1999/xlink">
    <g id="图纸标注" stroke="none" stroke-width="1" fill="none" fill-rule="evenodd">
        <g id="标注列表-引用" transform="translate(-251.000000, -353.000000)" fill="#FFFFFF" stroke="currentColor">
            <g id="云线-0" transform="translate(251.000000, 353.000000)">
                <path d="M6.00070699,0.500000113 C7.13829636,0.500000113 8.21720975,0.850115456 9.11397918,1.46561036 C10.0107431,2.08110149 10.7253652,2.96196899 11.1343794,4.02347797 C12.79374,4.42711678 13.8454554,4.83612617 14.5750872,5.62871926 C15.2551219,6.36743557 15.5837083,7.36090324 15.4816232,8.35602405 C13.2971324,11.1529498 12.7588327,11.4633737 12.1846841,11.4944205 L12.1846841,11.4944205 L5.99990776,11.4990856 C4.97417048,11.5007252 3.96926712,11.2140202 3.09965267,10.6723148 C1.79074134,8.84002113 1.09017269,7.40895656 0.824522941,6.23000514 C0.529820918,4.92211999 0.796977132,3.95360313 1.32611705,3.10057499 C2.32933724,1.48328054 4.09743079,0.499631764 6.00070699,0.500000113 Z" id="形状"></path>
            </g>
        </g>
    </g>
</svg>