<?xml version="1.0" encoding="UTF-8"?>
<svg width="14px" height="14px" viewBox="0 0 14 14" version="1.1" xmlns="http://www.w3.org/2000/svg" xmlns:xlink="http://www.w3.org/1999/xlink">
    <defs>
        <polygon id="link-search-1" points="0 16 16 16 16 0 0 0"></polygon>
        <path d="M12.65872,13.24144 L10.23472,10.81824 C10.15792,10.74064 10.11552,10.63664 10.11552,10.52624 C10.11552,10.41584 10.15792,10.31184 10.23472,10.23504 C10.31472,10.15504 10.42032,10.11504 10.52592,10.11504 C10.63152,10.11504 10.73712,10.15504 10.81712,10.23504 L13.24112,12.65824 L12.65872,13.24144 L12.65872,13.24144 Z M3.60272,8.63664 C2.21472,7.24864 2.21472,4.99104 3.60272,3.60304 C4.29632,2.90864 5.20832,2.56144 6.11952,2.56144 C7.03072,2.56144 7.94272,2.90864 8.63632,3.60304 C10.02432,4.99104 10.02432,7.24864 8.63632,8.63664 C7.24832,10.02384 4.99072,10.02464 3.60272,8.63664 L3.60272,8.63664 Z M14.25952,12.31984 L11.49632,9.55664 C11.08112,9.14144 10.46512,9.05264 9.96032,9.28144 L9.62192,8.94304 C10.26912,8.14224 10.63872,7.16384 10.63872,6.11984 C10.63872,4.91264 10.16912,3.77744 9.31552,2.92384 C7.55232,1.16064 4.68592,1.16144 2.92352,2.92384 C2.06992,3.77744 1.60032,4.91264 1.60032,6.11984 C1.60032,7.32624 2.06992,8.46144 2.92352,9.31504 C3.80512,10.19584 4.96192,10.63664 6.11952,10.63664 C7.12432,10.63664 8.11712,10.28384 8.94112,9.62064 L9.28032,9.95984 C9.20032,10.13584 9.15552,10.32704 9.15552,10.52624 C9.15552,10.89344 9.29792,11.23824 9.55632,11.49584 L12.31952,14.25904 C12.40912,14.35024 12.53152,14.39984 12.65872,14.39984 C12.78592,14.39984 12.90832,14.35024 12.99792,14.25904 L14.25952,12.99744 C14.44672,12.81024 14.44672,12.50624 14.25952,12.31984 L14.25952,12.31984 Z" id="link-search-3"></path>
    </defs>
    <g id="图纸标注" stroke="none" stroke-width="1" fill="none" fill-rule="evenodd">
        <g id="标注列表-引用-弹窗" transform="translate(-1034.000000, -330.000000)">
            <g id="Search-搜索/Fill/4-Typing" transform="translate(1021.000000, 323.000000)">
                <g id="icon-search" transform="translate(12.000000, 6.000000)">
                    <mask id="mask-2" fill="white">
                        <use xlink:href="#link-search-1"></use>
                    </mask>
                    <g></g>
                    <mask id="mask-4" fill="white">
                        <use xlink:href="#link-search-3"></use>
                    </mask>
                    <use fill="#A6A6A6" xlink:href="#link-search-3"></use>
                    <rect id="Color" fill="#8C8C8C" mask="url(#mask-4)" x="0" y="0" width="16" height="16"></rect>
                </g>
            </g>
        </g>
    </g>
</svg>