<?xml version="1.0" encoding="UTF-8"?>
<svg viewBox="0 0 25 25" version="1.1" xmlns="http://www.w3.org/2000/svg" xmlns:xlink="http://www.w3.org/1999/xlink">
    <defs>
        <linearGradient x1="89.5501052%" y1="98.7019861%" x2="13.3402458%" y2="2.98039977%" id="linearGradient-1">
            <stop stop-color="#EAEAEA" offset="0%"></stop>
            <stop stop-color="#B3B5BA" offset="100%"></stop>
        </linearGradient>
        <path d="M8,3.89 C10.8221751,3.89 13.11,6.17782493 13.11,9 C13.11,11.8221751 10.8221751,14.11 8,14.11 C5.17782493,14.11 2.89,11.8221751 2.89,9 C2.89,6.17782493 5.17782493,3.89 8,3.89 Z M4.88545591,6.8049791 C4.44735721,7.4254666 4.19,8.1826788 4.19,9 C4.19,11.1042049 5.8957951,12.81 8,12.81 C8.8173212,12.81 9.5745334,12.5526428 10.1950209,12.1145441 Z M8,5.19 C7.1826788,5.19 6.4254666,5.44735721 5.8049791,5.88545591 L11.1145441,11.1950209 C11.5526428,10.5745334 11.81,9.8173212 11.81,9 C11.81,6.8957951 10.1042049,5.19 8,5.19 Z" id="link-unPreView-2"></path>
        <filter x="-68.5%" y="-48.9%" width="237.0%" height="237.0%" filterUnits="objectBoundingBox" id="filter-3">
            <feOffset dx="0" dy="2" in="SourceAlpha" result="shadowOffsetOuter1"></feOffset>
            <feGaussianBlur stdDeviation="2" in="shadowOffsetOuter1" result="shadowBlurOuter1"></feGaussianBlur>
            <feColorMatrix values="0 0 0 0 0.701960784   0 0 0 0 0.709803922   0 0 0 0 0.733333333  0 0 0 1 0" type="matrix" in="shadowBlurOuter1"></feColorMatrix>
        </filter>
    </defs>
    <g id="icon" stroke="none" stroke-width="1" fill="none" fill-rule="evenodd">
        <g id="24*24" transform="translate(-524.000000, -28.000000)">
            <g id="不可预览文件" transform="translate(524.830000, 28.500000)">
                <rect id="矩形备份-11" x="0" y="0" width="24" height="24"></rect>
                <g id="编组-20" transform="translate(4.000000, 3.005000)">
                    <path d="M14,17.99 L2,17.99 C0.9,17.99 0,17.09 0,15.99 L0,2 C0,0.9 0.9,0 2,0 L9.77,0 C10.56,0 11.31,0.31 11.87,0.86 L15.1,4.03 C15.67,4.59 16,5.37 16,6.17 L16,15.99 C16,17.1 15.11,17.99 14,17.99 Z" id="路径" fill="url(#linearGradient-1)"></path>
                    <g id="形状结合" fill-rule="nonzero">
                        <use fill="black" fill-opacity="1" filter="url(#filter-3)" xlink:href="#link-unPreView-2"></use>
                        <use fill="#FFFFFF" xlink:href="#link-unPreView-2"></use>
                    </g>
                </g>
            </g>
        </g>
    </g>
</svg>