<?xml version="1.0" encoding="UTF-8"?>
<svg viewBox="0 0 10 8" version="1.1" xmlns="http://www.w3.org/2000/svg" xmlns:xlink="http://www.w3.org/1999/xlink">
    <g id="图纸标注" stroke="none" stroke-width="1" fill="none" fill-rule="evenodd">
        <g id="标注列表-工具签名" transform="translate(-1344.000000, -623.000000)">
            <g id="编组-20" transform="translate(1021.000000, 551.000000)">
                <g id="编组-14" transform="translate(317.000000, 66.000000)">
                    <g id="删除-(4)" transform="translate(6.000000, 6.000000)">
                        <path d="M6.97167789,3.01378537 C6.8640748,3.01988293 6.78116179,3.1118439 6.78539935,3.22045854 L6.78539935,6.80886829 C6.81668764,7.0964878 6.61805439,7.35806829 6.33449577,7.40254634 L2.23571008,7.40254634 C1.95367041,7.35628293 1.75706886,7.09526829 1.78855065,6.80886829 L1.78855065,3.21672195 C1.79085325,3.1108878 1.71065886,3.0217561 1.60597756,3.01378537 C1.49834545,3.01988293 1.41543244,3.1118439 1.41966033,3.22045854 L1.41966033,6.80886829 C1.37820382,7.31070244 1.73957683,7.75498537 2.23571008,7.81210732 L6.33449577,7.81210732 C6.83214797,7.75684878 7.19563008,7.312 7.15428967,6.80886829 L7.15428967,3.21672195 C7.15655358,3.1108878 7.07635919,3.0217561 6.97167789,3.01378537 Z" id="Fill-1" fill="#000000"></path>
                        <g id="Group-5" fill="currentColor">
                            <path d="M2.23571008,7.99999024 C1.63413122,7.94046829 1.18845203,7.40948293 1.22964732,6.80136585 L1.22964732,3.21672195 C1.22964732,3.11706341 1.26890764,3.02148293 1.3387887,2.95102439 C1.40866976,2.8805561 1.50344407,2.8409561 1.60227211,2.8409561 C1.70110016,2.8409561 1.79584545,2.8805561 1.8657265,2.95102439 C1.93559789,3.02148293 1.97486789,3.11706341 1.97486789,3.21672195 L1.97486789,6.80886829 C1.95468626,6.9967122 2.07592114,7.17045854 2.25807821,7.21466341 L6.33449577,7.21466341 C6.50124089,7.17114146 6.61185285,7.01180488 6.59533797,6.83893659 L6.59533797,3.21672195 C6.59533797,3.00918049 6.76215081,2.8409561 6.96797244,2.8409561 C7.17374569,2.8409561 7.34059724,3.00918049 7.34059724,3.21672195 L7.34059724,6.80886829 C7.37756463,7.41416585 6.93300772,7.94050732 6.33449577,7.99999024 L2.23571008,7.99999024 Z M1.62461122,7.0305561 C1.67475569,7.34412683 1.92335927,7.58715122 2.23571008,7.628 L6.33449577,7.628 C6.63143463,7.59553171 6.87530724,7.37678049 6.94188919,7.08319024 C6.8672578,7.35712195 6.63637846,7.55876098 6.35687358,7.59419512 L2.23571008,7.59419512 C1.93291797,7.55856585 1.68674276,7.3315122 1.62461122,7.0305561 Z M6.97167789,6.7112 L6.97167789,6.8112 L6.97167789,6.7112 Z M8.19761008,1.88653659 L6.14821724,1.88653659 L6.14821724,0.928380488 C6.14821724,0.511307317 5.93582642,0.176897561 5.65635057,0.176897561 L2.91389398,0.176897561 C2.63441813,0.176897561 2.42202732,0.492526829 2.42202732,0.928380488 L2.42202732,1.88653659 L0.372634472,1.88653659 C0.269723659,1.88653659 0.186317236,1.97068293 0.186317236,2.07441951 C0.186317236,2.17819512 0.269723659,2.26230244 0.372634472,2.26230244 L8.19761008,2.26230244 C8.3004822,2.26230244 8.38392732,2.17819512 8.38392732,2.07441951 C8.38392732,1.97068293 8.3004822,1.88653659 8.19761008,1.88653659 Z M5.77928821,1.88653659 L2.79835756,1.88653659 L2.79835756,0.928380488 C2.77700528,0.791190244 2.82121911,0.651863415 2.91758976,0.552663415 L5.66005602,0.552663415 C5.69361789,0.552663415 5.78303236,0.687912195 5.78303236,0.928380488 L5.77928821,1.88653659 Z" id="Fill-2"></path>
                            <path d="M8.19761008,2.45018537 L0.372634472,2.45018537 C0.166812846,2.45018537 0,2.28197073 0,2.07441951 C0,1.86691707 0.166812846,1.69869268 0.372634472,1.69869268 L2.23571008,1.69869268 L2.23571008,0.947170732 C2.23571008,0.40235122 2.52637,0.00780487805 2.91389398,0.00780487805 L5.65635057,0.00780487805 C6.04387455,0.00780487805 6.33449577,0.40235122 6.33449577,0.928380488 L6.33449577,1.6799122 L8.19761008,1.6799122 C8.40339301,1.6799122 8.57020585,1.84812683 8.57020585,2.05562927 C8.57020585,2.26318049 8.40339301,2.43139512 8.19761008,2.43139512 L8.19761008,2.45018537 Z M2.98093065,1.69869268 L5.5892752,1.69869268 L5.5892752,0.947170732 C5.59377398,0.883678049 5.58617927,0.819921951 5.5668974,0.759287805 L3.00704293,0.759287805 C2.98388146,0.804370732 2.97477748,0.855482927 2.98093065,0.905863415 L2.98093065,1.69869268 Z M2.79091764,0.428653659 C2.74476886,0.467482927 2.70784984,0.516302439 2.68286951,0.571443902 C2.7093978,0.523541463 2.74193415,0.479336585 2.7797239,0.439931707 L2.79091764,0.428653659 Z M3.53988236,6.10246829 L3.53988236,3.97198049 C3.53988236,3.82541463 3.4579078,3.70517073 3.35356512,3.70517073 C3.24922244,3.70517073 3.16724789,3.82541463 3.16724789,3.97198049 L3.16724789,6.09869268 C3.16724789,6.24526829 3.24922244,6.36550244 3.35356512,6.36550244 C3.4579078,6.36550244 3.53988236,6.24900488 3.53988236,6.10246829 Z" id="Fill-4"></path>
                        </g>
                        <path d="M3.35356512,6.55334634 C3.1261687,6.53158049 2.95935585,6.328 2.98093065,6.09869268 L2.98093065,3.97198049 C2.96150366,3.74404878 3.12775537,3.54290732 3.35356512,3.52106341 C3.58096154,3.54286829 3.74777439,3.74640976 3.72619959,3.97571707 L3.72619959,6.10246829 C3.74561691,6.33036098 3.57937488,6.53155122 3.35356512,6.55334634 Z M5.40295797,6.10246829 L5.40295797,3.97198049 C5.40295797,3.82541463 5.32098341,3.70517073 5.21664073,3.70517073 C5.11233675,3.70517073 5.0303622,3.82541463 5.0303622,3.97198049 L5.0303622,6.09869268 C5.0303622,6.24526829 5.11233675,6.36550244 5.21664073,6.36550244 C5.32098341,6.36550244 5.40295797,6.24900488 5.40295797,6.10246829 Z" id="Fill-6" fill="currentColor"></path>
                        <path d="M5.21664073,6.55334634 C4.98924431,6.53158049 4.82243146,6.328 4.84405463,6.09869268 L4.84405463,3.97198049 C4.82243146,3.74263415 4.98924431,3.53909268 5.21664073,3.51729756 C5.44403715,3.53909268 5.6108887,3.74263415 5.5892752,3.97198049 L5.5892752,6.09869268 C5.6108887,6.328 5.44403715,6.53158049 5.21664073,6.55334634 Z" id="Fill-7" fill="currentColor"></path>
                    </g>
                </g>
            </g>
        </g>
    </g>
</svg>