<?xml version="1.0" encoding="UTF-8"?>
<svg viewBox="0 0 8 8" version="1.1" xmlns="http://www.w3.org/2000/svg" xmlns:xlink="http://www.w3.org/1999/xlink">
    <g id="图纸标注" stroke="none" stroke-width="1" fill="none" fill-rule="evenodd">
        <g id="标注列表-工具签名" transform="translate(-1314.000000, -623.000000)" fill="currentColor" fill-rule="nonzero">
            <g id="编组-20" transform="translate(1021.000000, 551.000000)">
                <g id="编组-13" transform="translate(287.000000, 66.000000)">
                    <g id="xiangqing" transform="translate(6.000000, 6.000000)">
                        <path d="M7.69075629,7.70084033 L4.32268907,7.70084033 C4.15126049,7.70084033 4.01344537,7.5630252 4.01344537,7.39159663 C4.01344537,7.22016806 4.1512605,7.08235294 4.32268907,7.08235294 L7.69075629,7.08235294 C7.86218486,7.08235294 7.99999999,7.22016807 7.99999999,7.39159663 C7.99999999,7.56302519 7.86218486,7.70084033 7.69075629,7.70084033 L7.69075629,7.70084033 Z M7.69075629,5.84537815 L4.32268907,5.84537815 C4.15126049,5.84537815 4.01344537,5.70756302 4.01344537,5.53613445 C4.01344537,5.36470588 4.1512605,5.22689076 4.32268907,5.22689076 L7.69075629,5.22689076 C7.86218486,5.22689076 7.99999999,5.36470589 7.99999999,5.53613445 C7.99999999,5.70756301 7.86218486,5.84537815 7.69075629,5.84537815 L7.69075629,5.84537815 Z M7.69075629,3.06554622 L4.32268907,3.06554622 C4.15126049,3.06554622 4.01344537,2.92773109 4.01344537,2.75630253 C4.01344537,2.58487396 4.1512605,2.44705882 4.32268907,2.44705882 L7.69075629,2.44705882 C7.86218486,2.44705882 7.99999999,2.58487395 7.99999999,2.75630253 C7.99999999,2.9277311 7.86218486,3.06554622 7.69075629,3.06554622 L7.69075629,3.06554622 Z M7.69075629,1.21344538 L4.32268907,1.21344538 C4.15126049,1.21344538 4.01344537,1.07563025 4.01344537,0.904201683 C4.01344537,0.732773112 4.1512605,0.594957983 4.32268907,0.594957983 L7.69075629,0.594957983 C7.86218486,0.594957983 7.99999999,0.732773112 7.99999999,0.904201683 C7.99999999,1.07563025 7.86218486,1.21344538 7.69075629,1.21344538 L7.69075629,1.21344538 Z M2.66554621,8 L0.816806722,8 C0.366386551,8 4.4408921e-16,7.63361344 4.4408921e-16,7.18655462 L4.4408921e-16,5.29747899 C4.4408921e-16,4.85042017 0.366386551,4.48403361 0.813445371,4.48403361 L2.66218487,4.48403361 C3.11260504,4.48403361 3.47565319,4.85042016 3.47565319,5.29747899 L3.47565319,7.18655462 C3.47899158,7.63361344 3.11260503,8 2.66554621,8 L2.66554621,8 Z M2.62184874,3.51596639 L0.857142856,3.51596639 C0.383193277,3.51596639 0,3.13277311 0,2.65882353 L0,0.857142856 C0,0.383193277 0.383193277,0 0.857142856,0 L2.62184874,0 C3.09579832,0 3.47899159,0.383193277 3.47899159,0.857142856 L3.47899159,2.65882353 C3.47899159,3.13277311 3.09243698,3.51596639 2.62184874,3.51596639 Z" id="形状"></path>
                    </g>
                </g>
            </g>
        </g>
    </g>
</svg>