<?xml version="1.0" encoding="UTF-8"?>
<svg viewBox="0 0 8 8" version="1.1" xmlns="http://www.w3.org/2000/svg" xmlns:xlink="http://www.w3.org/1999/xlink">
    <g id="图纸标注" stroke="none" stroke-width="1" fill="none" fill-rule="evenodd">
        <g id="标注列表-工具签名" transform="translate(-1284.000000, -623.000000)" fill="currentColor">
            <g id="编组-20" transform="translate(1021.000000, 551.000000)">
                <g id="编组-15" transform="translate(257.000000, 66.000000)">
                    <path d="M10.8116032,7.50729339 L12.4927745,9.18839681 L7.85513424,13.8260541 C7.79715228,13.942018 7.62318939,14 7.50729339,14 L7.50729339,14 L6.52178676,14 C6.23192787,14 6,13.7680721 6,13.4782132 L6,13.4782132 L6,12.4927745 C6,12.3768106 6.05798197,12.2608467 6.1739459,12.1449507 L6.1739459,12.1449507 L10.8116032,7.50729339 Z M12.4927745,6 C12.6086705,6 12.7246345,6.05798197 12.8405475,6.1739459 L12.8405475,6.1739459 L13.8260541,7.15946952 C13.942018,7.27536552 14,7.39132945 14,7.50729339 C14,7.62318939 13.942018,7.73915333 13.8260541,7.85513424 L13.8260541,7.85513424 L13.1883713,8.49274907 L11.5072679,6.81162866 L12.1449507,6.1739459 C12.2029326,6.05798197 12.3768106,6 12.4927745,6 Z" id="Combined-Shape-Copy"></path>
                </g>
            </g>
        </g>
    </g>
</svg>