<?xml version="1.0" encoding="UTF-8"?>
<svg viewBox="0 0 12 12" version="1.1" xmlns="http://www.w3.org/2000/svg" xmlns:xlink="http://www.w3.org/1999/xlink">
    <g id="图纸标注" stroke="none" stroke-width="1" fill="none" fill-rule="evenodd">
        <g id="标注列表" transform="translate(-1152.000000, -138.000000)" fill="currentColor" fill-rule="nonzero">
            <g id="编组-3" transform="translate(1137.000000, 128.000000)">
                <g id="标注" transform="translate(15.000000, 10.000000)">
                    <path d="M4.80000001,5.1 L5.42280001,2.91900001 C5.49605232,2.66091959 5.73172513,2.4828297 6,2.4828297 C6.26827487,2.4828297 6.50394768,2.66091959 6.57719999,2.91900001 L7.19999999,5.1 L7.19999999,6 L7.63199999,6 C7.90720763,6.00000723 8.14712454,6.18724136 8.214,6.4542 L9.03059999,9.7224 C10.6055508,8.4401135 11.2030303,6.30540025 10.5225549,4.39184812 C9.84207942,2.478296 8.03094278,1.20010722 6,1.20010722 C3.96905722,1.20010722 2.15792058,2.478296 1.47744512,4.39184812 C0.796969666,6.30540025 1.39444924,8.4401135 2.96940001,9.7224 L3.78660001,6.4542 C3.85342099,6.18745819 4.09301608,6.00028225 4.36800001,6 L4.80000001,6 L4.80000001,5.1 Z M6,10.8000102 C6.67510549,10.8013587 7.34281355,10.6594324 7.959,10.3836 L7.1628,7.19999999 L4.8372,7.19999999 L4.041,10.3836 C4.65717508,10.6594673 5.32489072,10.8013952 6,10.8000102 Z M6,12 C2.6862,12 0,9.3138 0,6 C0,2.6862 2.6862,0 6,0 C9.3138,0 12,2.6862 12,6 C12,9.3138 9.3138,12 6,12 Z" id="形状"></path>
                </g>
            </g>
        </g>
    </g>
</svg>