<?xml version="1.0" encoding="UTF-8"?>
<svg viewBox="0 0 24 25" version="1.1" xmlns="http://www.w3.org/2000/svg" xmlns:xlink="http://www.w3.org/1999/xlink">
    <defs>
        <linearGradient x1="17.5092458%" y1="0%" x2="85.5318282%" y2="100%" id="linearGradient-1">
            <stop stop-color="#FF7E7E" offset="0%"></stop>
            <stop stop-color="#FFA0A0" offset="100%"></stop>
        </linearGradient>
        <path d="M14,18.98 L2,18.98 C0.9,18.98 0,18.08 0,16.98 L0,2 C0,0.9 0.9,0 2,0 L11,0 L16,4.91 L16,16.99 C16,18.09 15.11,18.98 14,18.98 Z" id="link-pdf-2"></path>
        <path d="M16,4.9 L13,4.9 C11.9,4.9 11,4 11,2.9 L11,2.84217094e-14 L16,4.9 Z" id="link-pdf-3"></path>
        <filter x="-80.0%" y="-40.8%" width="260.0%" height="263.3%" filterUnits="objectBoundingBox" id="filter-4">
            <feOffset dx="0" dy="2" in="SourceAlpha" result="shadowOffsetOuter1"></feOffset>
            <feGaussianBlur stdDeviation="1" in="shadowOffsetOuter1" result="shadowBlurOuter1"></feGaussianBlur>
            <feComposite in="shadowBlurOuter1" in2="SourceAlpha" operator="out" result="shadowBlurOuter1"></feComposite>
            <feColorMatrix values="0 0 0 0 1   0 0 0 0 0.498039216   0 0 0 0 0.498039216  0 0 0 1 0" type="matrix" in="shadowBlurOuter1"></feColorMatrix>
        </filter>
        <path d="M9.87643021,7.12419213 C11.0515536,7.12419213 12,8.07669171 12,9.24776193 C12,10.3739219 11.1252217,11.291901 10.0216225,11.3664441 L9.87643021,11.3713317 L5.28146453,11.3704164 L5.28146453,13.2843752 C5.28146453,13.608753 5.04041774,13.8768312 4.72767584,13.9192583 L4.64073227,13.9251075 C4.31635449,13.9251075 4.04827622,13.6840607 4.00584913,13.3713188 L4,13.2843752 L4,10.9319725 C4,10.5013879 4.32627242,10.1443594 4.74415213,10.0955522 L4.84210526,10.0898672 L9.87643021,10.0898672 C10.3409875,10.0898672 10.7185355,9.71392583 10.7185355,9.24776193 C10.7185355,8.81638728 10.3943819,8.46003601 9.97483739,8.41132958 L9.87643021,8.40565666 L4.64073227,8.40565666 C4.28686561,8.40565666 4,8.11879106 4,7.7649244 C4,7.44054663 4.24104679,7.17246835 4.55378869,7.13004126 L4.64073227,7.12419213 L9.87643021,7.12419213 Z" id="link-pdf-5"></path>
        <filter x="-68.8%" y="-51.5%" width="237.5%" height="261.7%" filterUnits="objectBoundingBox" id="filter-6">
            <feOffset dx="0" dy="2" in="SourceAlpha" result="shadowOffsetOuter1"></feOffset>
            <feGaussianBlur stdDeviation="1.5" in="shadowOffsetOuter1" result="shadowBlurOuter1"></feGaussianBlur>
            <feColorMatrix values="0 0 0 0 1   0 0 0 0 0.448554807   0 0 0 0 0.448554807  0 0 0 1 0" type="matrix" in="shadowBlurOuter1"></feColorMatrix>
        </filter>
    </defs>
    <g id="icon" stroke="none" stroke-width="1" fill="none" fill-rule="evenodd">
        <g id="24*24" transform="translate(-205.000000, -28.000000)">
            <g id="PDF" transform="translate(205.000000, 28.500000)">
                <rect id="矩形备份-4" x="0" y="0" width="24" height="24"></rect>
                <g id="编组-13" transform="translate(4.000000, 2.510000)" fill-rule="nonzero">
                    <g id="编组-5">
                        <g id="路径">
                            <use fill="#000000" xlink:href="#link-pdf-2"></use>
                            <use fill="url(#linearGradient-1)" xlink:href="#link-pdf-2"></use>
                        </g>
                        <g id="路径">
                            <use fill="black" fill-opacity="1" filter="url(#filter-4)" xlink:href="#link-pdf-3"></use>
                            <use fill-opacity="0.4" fill="#FFFFFF" xlink:href="#link-pdf-3"></use>
                        </g>
                        <g id="路径">
                            <use fill="black" fill-opacity="1" filter="url(#filter-6)" xlink:href="#link-pdf-5"></use>
                            <use fill="#FFFFFF" xlink:href="#link-pdf-5"></use>
                        </g>
                    </g>
                </g>
            </g>
        </g>
    </g>
</svg>