<?xml version="1.0" standalone="no"?>
<!DOCTYPE svg PUBLIC "-//W3C//DTD SVG 1.1//EN" "http://www.w3.org/Graphics/SVG/1.1/DTD/svg11.dtd">
<svg t="1653889212906" class="icon" viewBox="0 0 1024 1024" version="1.1" xmlns="http://www.w3.org/2000/svg" p-id="5342" xmlns:xlink="http://www.w3.org/1999/xlink" width="200" height="200">
    <defs>
        <style type="text/css">@font-face { font-family: feedback-iconfont; src: url("//at.alicdn.com/t/font_1031158_u69w8yhxdu.woff2?t=1630033759944") format("woff2"), url("//at.alicdn.com/t/font_1031158_u69w8yhxdu.woff?t=1630033759944") format("woff"), url("//at.alicdn.com/t/font_1031158_u69w8yhxdu.ttf?t=1630033759944") format("truetype"); }
        </style>
    </defs>
    <path d="M889.116444 517.973333H460.003556c-52.053333 0-78.051556 25.998222-78.051556 77.994667v299.064889c0 51.996444 25.998222 78.051556 78.051556 78.051555h429.112888c51.996444 0 77.994667-26.055111 77.994667-78.051555v-299.064889c0-51.996444-25.998222-77.994667-77.994667-77.994667z" fill="currentColor" p-id="5343">
    </path>
    <path d="M554.268444 51.598222a65.024 65.024 0 0 0 17.066667 84.309334C233.699556 180.451556 56.888889 399.644444 56.888889 778.012444a65.024 65.024 0 0 0 130.048 0c0-333.368889 146.944-499.996444 459.491555-518.371555l-24.803555 43.178667a65.024 65.024 0 0 0 16.952889 84.252444l6.826666 4.551111c28.387556 16.327111 64.455111 9.102222 84.252445-17.066667l4.551111-6.712888 91.932444-159.288889a65.024 65.024 0 0 0-16.952888-84.252445l-6.826667-4.551111-159.288889-91.932444a65.024 65.024 0 0 0-88.803556 23.779555z" fill="currentColor" p-id="5344">
    </path>
</svg>