<?xml version="1.0" encoding="UTF-8"?>
<svg viewBox="0 0 25 25" version="1.1" xmlns="http://www.w3.org/2000/svg" xmlns:xlink="http://www.w3.org/1999/xlink">
    <defs>
        <linearGradient x1="90.4451976%" y1="100%" x2="9.55480242%" y2="0%" id="linearGradient-1">
            <stop stop-color="#75F6CC" offset="0%"></stop>
            <stop stop-color="#4FE1A3" offset="100%"></stop>
        </linearGradient>
        <path d="M12.1088377,7.42207628 C12.3672649,7.17290624 12.7787537,7.1804106 13.0279237,7.43883773 C13.2521768,7.67142215 13.2685235,8.02798653 13.081157,8.27861852 L13.0111623,8.35792372 L9.65456173,11.5941992 C9.26992491,11.9547962 8.67786553,11.9758383 8.26590056,11.653766 L8.16688554,11.5660976 L6.381,9.752 L3.90823197,12.0100549 C3.66961765,12.2278809 3.31274007,12.2344964 3.06731167,12.0403637 L2.98994506,11.968232 C2.77211911,11.7296177 2.76550359,11.3727401 2.95963634,11.1273117 L3.03176803,11.0499451 L5.66543827,8.64580082 C6.04685363,8.28822392 6.62038778,8.27399104 7.04127289,8.58844876 L7.14311446,8.67390243 L8.929,10.487 L12.1088377,7.42207628 Z" id="link-schedule-2"></path>
        <filter x="-52.9%" y="-70.9%" width="205.9%" height="322.7%" filterUnits="objectBoundingBox" id="filter-3">
            <feOffset dx="0" dy="2" in="SourceAlpha" result="shadowOffsetOuter1"></feOffset>
            <feGaussianBlur stdDeviation="1.5" in="shadowOffsetOuter1" result="shadowBlurOuter1"></feGaussianBlur>
            <feColorMatrix values="0 0 0 0 0.205576784   0 0 0 0 0.875368422   0 0 0 0 0.590936357  0 0 0 1 0" type="matrix" in="shadowBlurOuter1"></feColorMatrix>
        </filter>
    </defs>
    <g id="icon" stroke="none" stroke-width="1" fill="none" fill-rule="evenodd">
        <g id="24*24" transform="translate(-476.000000, -28.000000)">
            <g id="进度计划" transform="translate(476.830000, 28.500000)">
                <rect id="矩形备份-10" x="0" y="0" width="24" height="24"></rect>
                <g id="编组-19" transform="translate(3.999918, 3.105000)">
                    <path d="M3.33,0.79 L3.33,2.23 C3.33,3.06 4,3.73 4.83,3.73 L4.83,3.73 L11.08,3.73 C11.91,3.73 12.58,3.06 12.58,2.23 L12.58,2.23 L12.58,0.79 L14.01,0.79 C15.11,0.79 16.01,1.68 16.0000825,2.79 L16.0000825,2.79 L16.0000825,15.79 C16.0000825,16.89 15.1,17.79 14,17.79 L14,17.79 L2,17.79 C0.9,17.79 0,16.89 0,15.79 L0,15.79 L0,2.79 C0,1.69 0.9,0.79 2,0.79 L2,0.79 L3.33,0.79 Z M10.4,0 C11.01,0 11.51,0.5 11.51,1.11 L11.51,1.53 C11.51,2.14 11.01,2.64 10.4,2.64 L5.62,2.64 C5.01,2.64 4.51,2.14 4.51,1.53 L4.51,1.11 C4.51,0.5 5.01,0 5.62,0 L10.4,0 Z" id="形状结合" fill="url(#linearGradient-1)"></path>
                    <g id="路径">
                        <use fill="black" fill-opacity="1" filter="url(#filter-3)" xlink:href="#link-schedule-2"></use>
                        <use fill="#FFFFFF" fill-rule="evenodd" xlink:href="#link-schedule-2"></use>
                    </g>
                </g>
            </g>
        </g>
    </g>
</svg>