<?xml version="1.0" encoding="UTF-8"?>
<svg viewBox="0 0 19 19" version="1.1" xmlns="http://www.w3.org/2000/svg" xmlns:xlink="http://www.w3.org/1999/xlink">
    <defs>
        <path d="M3.46153846,4.03846154 L11.5384615,4.03846154 L11.5384615,6.34615385 L8.65384615,6.34615385 L8.65384615,11.5384615 L6.34615385,11.5384615 L6.34615385,6.34615385 L3.46153846,6.34615385 L3.46153846,4.03846154 Z M0,0 L0,3.46153846 L1.15384615,3.46153846 L1.15384615,11.5384615 L0,11.5384615 L0,15 L3.46153846,15 L3.46153846,13.8461538 L11.5384615,13.8461538 L11.5384615,15 L15,15 L15,11.5384615 L13.8461538,11.5384615 L13.8461538,3.46153846 L15,3.46153846 L15,0 L11.5384615,0 L11.5384615,1.15384615 L3.46153846,1.15384615 L3.46153846,0 L0,0 Z M2.30769231,1.15384615 L2.30769231,2.30769231 L1.15384615,2.30769231 L1.15384615,1.15384615 L2.30769231,1.15384615 Z M2.30769231,11.5384615 L2.30769231,3.46153846 L3.46153846,3.46153846 L3.46153846,2.30769231 L11.5384615,2.30769231 L11.5384615,3.46153846 L12.6923077,3.46153846 L12.6923077,11.5384615 L11.5384615,11.5384615 L11.5384615,12.6923077 L3.46153846,12.6923077 L3.46153846,11.5384615 L2.30769231,11.5384615 Z M2.30769231,12.6923077 L2.30769231,13.8461538 L1.15384615,13.8461538 L1.15384615,12.6923077 L2.30769231,12.6923077 Z M12.6923077,1.15384615 L13.8461538,1.15384615 L13.8461538,2.30769231 L12.6923077,2.30769231 L12.6923077,1.15384615 Z M13.8461538,12.6923077 L13.8461538,13.8461538 L12.6923077,13.8461538 L12.6923077,12.6923077 L13.8461538,12.6923077 Z" id="textSvg"></path>
        <filter x="-20.0%" y="-20.0%" width="140.0%" height="140.0%" filterUnits="objectBoundingBox" id="filter-2">
            <feOffset dx="0" dy="0" in="SourceAlpha" result="shadowOffsetOuter1"></feOffset>
            <feGaussianBlur stdDeviation="1" in="shadowOffsetOuter1" result="shadowBlurOuter1"></feGaussianBlur>
            <feColorMatrix values="0 0 0 0 0   0 0 0 0 0.569078088   0 0 0 0 1  0 0 0 0.396692663 0" type="matrix" in="shadowBlurOuter1"></feColorMatrix>
        </filter>
    </defs>
    <g stroke="none" stroke-width="1" fill="none" fill-rule="evenodd">
        <g transform="translate(-181.000000, -433.000000)" fill-rule="nonzero">
            <g transform="translate(183.000000, 435.000000)">
                <use fill="black" fill-opacity="1" filter="url(#filter-2)" xlink:href="#textSvg"></use>
                <use fill="currentColor" xlink:href="#textSvg"></use>
            </g>
        </g>
    </g>
</svg>