<?xml version="1.0" encoding="UTF-8"?>
<svg viewBox="0 0 10 8" version="1.1" xmlns="http://www.w3.org/2000/svg" xmlns:xlink="http://www.w3.org/1999/xlink">
    <g id="图纸标注" stroke="none" stroke-width="1" fill="none" fill-rule="evenodd">
        <g id="标注列表-引用" transform="translate(-1342.000000, -641.000000)" fill="currentColor" fill-rule="nonzero">
            <g id="yinyong_3" transform="translate(1342.000000, 641.000000)">
                <path d="M4.7346087,2.08695652 C5.00889333,2.08704059 5.23627933,2.29948715 5.25497456,2.57313392 C5.27366978,2.84678069 5.07728988,3.08817844 4.80556522,3.12556522 L4.7346087,3.13043478 L4,3.13043478 C3.90817391,3.13043478 3.84834783,3.16869565 3.83095652,3.2 L3.82608696,3.2173913 L3.82608696,6.86956522 C3.82608696,6.896 3.86991304,6.93913043 3.94852174,6.95234783 L4,6.95652174 L8.17391304,6.95652174 C8.26573913,6.95652174 8.32556522,6.91826087 8.34295652,6.88695652 L8.34782609,6.86956522 L8.34782609,3.2173913 C8.34782609,3.19095652 8.304,3.14782609 8.2253913,3.1346087 L8.17391304,3.13043478 L7.50956522,3.13043478 C7.23541302,3.12998777 7.00837041,2.9174384 6.98986655,2.64391101 C6.97136269,2.37038361 7.16771017,2.12919231 7.43930435,2.09182609 L7.50956522,2.08695652 L8.17391304,2.08695652 C8.79721739,2.08695652 9.33217391,2.52591304 9.38643478,3.11721739 L9.39130435,3.2173913 L9.39130435,6.86956522 C9.39130435,7.47686957 8.88904348,7.94782609 8.27686957,7.99652174 L8.17391304,8 L4,8 C3.37669565,8 2.84173913,7.56104348 2.78747826,6.96973913 L2.7826087,6.86956522 L2.7826087,3.2173913 C2.7826087,2.61008696 3.28486957,2.13913043 3.89704348,2.09043478 L4,2.08695652 L4.7346087,2.08695652 Z M5.39130435,0 C6.0146087,0 6.54956522,0.438956522 6.60382609,1.03026087 L6.60869565,1.13043478 L6.60869565,4.73113043 C6.60869565,5.35443478 6.11617391,5.85808696 5.49913043,5.90886957 L5.39478261,5.91304348 L4.69565217,5.91304348 C4.42136754,5.91295941 4.19398153,5.70051285 4.17528631,5.42686608 C4.15659109,5.15321931 4.35297099,4.91182156 4.62469565,4.87443478 L4.69565217,4.86956522 L5.39547826,4.86956522 C5.47826087,4.86956522 5.54086957,4.82226087 5.55965217,4.76521739 L5.56521739,4.73043478 L5.56521739,1.13113043 C5.56521739,1.10469565 5.5213913,1.06156522 5.44278261,1.04834783 L5.39130435,1.04347826 L1.2173913,1.04347826 C1.12556522,1.04347826 1.06573913,1.08173913 1.04834783,1.11304348 L1.04347826,1.13043478 L1.04347826,4.7826087 C1.04347826,4.80904348 1.08730435,4.85217391 1.16591304,4.8653913 L1.2173913,4.86956522 L1.93252174,4.86956522 C2.20667394,4.87001223 2.43371654,5.0825616 2.45222041,5.35608899 C2.47072427,5.62961639 2.27437678,5.87080769 2.00278261,5.90817391 L1.93252174,5.91304348 L1.2173913,5.91304348 C0.594086957,5.91304348 0.0591304348,5.47408696 0.00486956522,4.88278261 L0,4.7826087 L0,1.13043478 C0,0.523130435 0.50226087,0.052173913 1.11443478,0.00347826087 L1.2173913,0 L5.39130435,0 Z" id="形状"></path>
            </g>
        </g>
    </g>
</svg>